<svg width="751" height="378" viewBox="0 0 751 378" fill="none" xmlns="http://www.w3.org/2000/svg">
<g opacity="0.08">
<path d="M744.66 134.152H706.66V294.152H744.66V134.152Z" fill="#B3B3B3"/>
<path d="M693.738 269.238H654.74V68.248L693.738 110.245V269.238Z" fill="#B3B3B3"/>
<path d="M153.765 149.243H101.268V179.242H90.7676V315.735H122.267V288.736H153.765V149.243Z" fill="#959798"/>
<path d="M547.573 285.057H477.877V74.575L547.573 53.666V285.057Z" fill="#959798"/>
<path d="M631.729 57.8492V50.4312H594.108V57.8492H577.152V247.013H657.693V57.8492H631.729Z" fill="#959798"/>
<path d="M748.706 257.434V254.645H729.918V164.278L732.951 159.971H647.329H640.381H554.759L557.793 164.278V254.645H539.005V257.434H537.342V260.566H539.005V280.333H640.381H647.329H748.706V260.566H750.369V257.434H748.706Z" fill="#57595B"/>
<path d="M399.607 176.818V94.6962L394.492 92.5902H371.631L365.915 94.9972V178.322H361.102V107.631H355.387V95.5982L352.68 89.2812L354.184 85.0692H334.33V89.2812H331.322L310.565 76.3452L289.809 89.2812H286.801V85.0692H266.947L268.451 89.2812L265.744 95.5982V107.631H260.029V178.322H255.216V94.9972L249.5 92.5902H226.638L221.524 94.6962V176.818H182.719V241.795H310.565H438.412V176.818H399.607Z" fill="#959798"/>
<path d="M355.269 196.321V187.747H354.154L353.811 186.117H345.575V187.403H343.861V190.921H339.658V194.18H338.284V191.092H335.197V189.719H331.509V191.092H328.506V194.437H327.219V191.006H323.702V184.573H322.759V183.372H317.87V175.65L318.813 174.706V173.763H317.956V149.402L318.856 148.501V147.257H317.441V133.874L312.894 131.558H309.55V136.963H308.349V131.129H302.43V136.791H301.143V131.216H298.827L295.482 137.22V145.798H294.281V150.687H292.994V144.768H290.163L283.13 140.651V138.077H281.414V135.247H279.87H279.098H277.554V138.077H275.838V140.651L268.805 144.768H265.974V150.687H264.687V145.798H263.486V137.22L260.141 131.216H257.825V136.791H256.538V131.129H250.62V136.963H249.418V131.558H246.074L241.527 133.874V147.257H240.112V148.501L241.012 149.402V173.763H240.155V174.706L241.099 175.65V183.372H236.209V184.573H235.265V191.006H231.749V194.437H230.462V191.092H227.459V189.719H223.771V191.092H220.683V194.18H219.311V190.921H215.107V187.403H213.392V186.117H205.157L204.814 187.747H203.7V196.321H201.383V335.286H279.098H279.87H357.585V196.321H355.269Z" fill="#57595B"/>
<path d="M205.831 284.514V81.9851L204.652 78.2491V71.9581L203.177 67.7311V58.6861L201.702 54.5571V49.7391L200.326 46.2991V38.4351L198.949 35.5841L197.672 38.5331V45.6111H182.04L180.861 42.9571L178.797 45.2181L175.651 40.1061V37.0581L174.815 33.8091L173.979 37.0581V40.1061L170.833 45.2181L168.769 42.9571L167.589 45.6111H151.958V38.5331L150.681 35.5841L149.304 38.4351V46.2991L147.927 49.7391V54.5571L146.453 58.6861V67.7311L144.978 71.9581V78.2491L143.799 81.9851V284.514H205.831Z" fill="#57595B"/>
<path d="M569.414 0V8.13H533.102V278.861H569.414H573.209H580.256V0H569.414Z" fill="#57595B"/>
<path d="M620.906 167.479H603.02V278.861H620.906V167.479Z" fill="#57595B"/>
<path d="M569.868 277.125V99.5688H565.359V93.6748H562.585V96.1008H559.233V99.3398H555.303V106.276H516V277.125H569.868Z" fill="#241F21"/>
<path d="M628.736 277.125V99.5688H624.226V93.6748H621.453V96.1008H618.1V99.3398H614.17V106.276H574.867V277.125H628.736Z" fill="#241F21"/>
<path d="M511.742 277.125V180.257H508.044V174.016H506.426V118.298H461.805V277.125H511.742Z" fill="#241F21"/>
<path d="M448.198 109.757V88.3509L430.757 71.9659V69.5879H424.943H424.15H418.337V71.9659L400.895 88.3509V109.757H385.303V281.003H424.15H424.943H463.792V109.757H448.198Z" fill="#241F21"/>
<path d="M137.639 283.407V215.566H141.821V205.808H147.861V195.122H178.064V205.343H182.246V212.778L184.57 215.102V283.407H137.639Z" fill="#241F21"/>
<path d="M404.922 270.605V234.795L407.225 231.444L403.455 230.606V225.999H308.382V209.874H305.87V207.78H263.15H220.43V209.874H217.917V225.999H122.846V230.606L119.076 231.444L121.38 234.795V270.605H116.773V274.165H235.718V245.894C235.718 241.962 238.906 238.774 242.839 238.774C246.771 238.774 249.959 241.962 249.959 245.894V274.165H256.031V245.894C256.031 241.962 259.219 238.774 263.151 238.774C267.084 238.774 270.272 241.962 270.272 245.894V274.165H276.345V245.894C276.345 241.962 279.533 238.774 283.465 238.774C287.398 238.774 290.585 241.962 290.585 245.894V274.165H409.53V270.605H404.922Z" fill="#241F21"/>
<path d="M716.606 231.58V222.39L717.59 221.24H715.292V219.518L713.795 217.856V216.871H713.18V214.964L712.318 213.671L711.764 215.026V216.871H711.21V219.148C711.21 219.148 710.225 218.532 709.179 219.271C708.748 219.271 707.887 219.271 707.887 219.271C707.887 219.271 706.718 217.364 705.363 218.78C704.81 218.78 703.763 218.78 703.763 218.78C703.763 218.78 702.748 217.763 701.856 218.657C701.119 218.657 700.625 218.657 700.625 218.657L699.578 216.748V215.764H698.963V213.794L698.285 212.933L697.731 213.733V215.764H697.054V216.871L696.192 218.41V219.764H689.312C689.291 219.234 689.011 218.777 688.601 218.532C688.681 218.364 688.731 218.164 688.731 217.949C688.731 217.354 688.373 216.871 687.931 216.871C687.489 216.871 687.13 217.354 687.13 217.949C687.13 218.164 687.179 218.364 687.26 218.532C686.85 218.776 686.569 219.233 686.548 219.764H682.973C682.953 219.234 682.671 218.777 682.261 218.532C682.343 218.364 682.392 218.164 682.392 217.949C682.392 217.354 682.033 216.871 681.59 216.871C681.15 216.871 680.79 217.354 680.79 217.949C680.79 218.164 680.839 218.364 680.921 218.532C680.511 218.776 680.23 219.233 680.209 219.764H676.757C676.735 219.234 676.455 218.777 676.046 218.532C676.126 218.364 676.176 218.164 676.176 217.949C676.176 217.354 675.817 216.871 675.374 216.871C674.933 216.871 674.576 217.354 674.576 217.949C674.576 218.164 674.623 218.364 674.706 218.532C674.295 218.776 674.014 219.233 673.993 219.764H671.083V215.641L670.405 215.209V214.471L669.727 212.81C669.727 212.81 671.142 212.318 670.712 211.826C670.281 211.333 669.975 209.427 669.542 209.549C669.111 209.671 669.049 210.533 668.682 210.595C668.313 210.657 668.743 208.443 668.249 208.443C667.758 208.443 667.636 206.411 667.327 206.288C667.019 206.166 666.034 207.765 665.848 208.443C665.664 209.119 665.603 208.072 665.664 207.457C665.726 206.841 666.28 205.795 665.973 205.673C665.664 205.55 664.803 207.396 664.803 207.396L664.495 206.412H664.126V203.889L663.726 203.489L663.634 206.782L662.771 207.582C662.771 207.582 663.204 208.259 662.896 208.998C662.587 209.736 663.388 210.783 663.388 210.783C663.388 210.783 662.341 212.136 662.341 213.059C661.726 213.059 661.726 213.059 661.726 213.059V214.72H661.064C661.064 214.163 660.776 213.681 660.349 213.428C660.431 213.26 660.478 213.059 660.478 212.844C660.478 212.249 660.122 211.767 659.679 211.767C659.238 211.767 658.878 212.249 658.878 212.844C658.878 213.059 658.928 213.26 659.008 213.428C658.584 213.681 658.295 214.163 658.295 214.72H656.064C656.064 214.72 656.741 212.197 655.51 212.197C655.51 207.642 655.51 204.689 655.51 204.689L656.803 203.028H655.51V199.395L654.955 198.226V188.195H655.57V187.271H654.893L656.617 184.256H654.77V181.793C654.77 181.793 653.847 180.377 653.292 180.132C653.663 178.716 653.847 177.854 653.847 177.854H653.292L652.74 178.347L653.846 176.441H651.875V171.209L652.861 167.639H651.815V166.285H650.707C650.707 166.285 650.707 162.1 646.892 160.13C647.138 159.884 646.892 159.084 646.892 159.084H646.337L646.029 153.484H645.434H645.29H644.696L644.388 159.084H643.833C643.833 159.084 643.586 159.884 643.833 160.13C640.018 162.1 640.018 166.285 640.018 166.285H638.909V167.639H637.863L638.849 171.209V176.441H636.879L637.986 178.347L637.432 177.854H636.878C636.878 177.854 637.062 178.716 637.432 180.132C636.878 180.377 635.955 181.793 635.955 181.793V184.256H634.108L635.833 187.271H635.155V188.195H635.77V198.226L635.216 199.395V203.028H633.924L635.216 204.689C635.216 204.689 635.216 207.642 635.216 212.197C633.986 212.197 634.662 214.72 634.662 214.72H632.43C632.43 214.163 632.141 213.681 631.715 213.428C631.797 213.26 631.846 213.059 631.846 212.844C631.846 212.249 631.487 211.767 631.044 211.767C630.603 211.767 630.245 212.249 630.245 212.844C630.245 213.059 630.294 213.26 630.376 213.428C629.949 213.681 629.66 214.163 629.66 214.72H628.999V213.059C628.999 213.059 628.999 213.059 628.383 213.059C628.383 212.136 627.337 210.783 627.337 210.783C627.337 210.783 628.138 209.736 627.829 208.998C627.521 208.259 627.951 207.582 627.951 207.582L627.091 206.782L626.999 203.489L626.599 203.889V206.412H626.23L625.922 207.396C625.922 207.396 625.061 205.55 624.752 205.673C624.445 205.795 624.999 206.841 625.061 207.457C625.123 208.072 625.061 209.119 624.876 208.443C624.69 207.764 623.707 206.166 623.399 206.288C623.089 206.411 622.967 208.443 622.474 208.443C621.982 208.443 622.413 210.657 622.044 210.595C621.675 210.534 621.613 209.671 621.182 209.549C620.751 209.427 620.444 211.333 620.013 211.826C619.581 212.318 620.997 212.81 620.997 212.81L620.32 214.471V215.209L619.643 215.641V219.764H616.732C616.711 219.234 616.43 218.777 616.02 218.532C616.102 218.364 616.15 218.164 616.15 217.949C616.15 217.354 615.793 216.871 615.35 216.871C614.907 216.871 614.549 217.354 614.549 217.949C614.549 218.164 614.598 218.364 614.679 218.532C614.269 218.776 613.989 219.233 613.968 219.764H610.517C610.496 219.234 610.214 218.777 609.804 218.532C609.885 218.364 609.934 218.164 609.934 217.949C609.934 217.354 609.575 216.871 609.133 216.871C608.691 216.871 608.334 217.354 608.334 217.949C608.334 218.164 608.383 218.364 608.463 218.532C608.054 218.776 607.773 219.233 607.752 219.764H604.177C604.156 219.234 603.875 218.777 603.464 218.532C603.546 218.364 603.594 218.164 603.594 217.949C603.594 217.354 603.237 216.871 602.795 216.871C602.353 216.871 601.994 217.354 601.994 217.949C601.994 218.164 602.042 218.364 602.124 218.532C601.713 218.776 601.433 219.233 601.412 219.764H594.532V218.41L593.672 216.871V215.764H592.994V213.733L592.439 212.933L591.761 213.794V215.764H591.146V216.748L590.1 218.657C590.1 218.657 589.608 218.657 588.87 218.657C587.977 217.764 586.962 218.78 586.962 218.78C586.962 218.78 585.915 218.78 585.362 218.78C584.008 217.364 582.839 219.271 582.839 219.271C582.839 219.271 581.976 219.271 581.546 219.271C580.501 218.532 579.516 219.148 579.516 219.148V216.871H578.961V215.026L578.408 213.671L577.546 214.964V216.871H576.931V217.856L575.432 219.518V221.24H573.135L574.119 222.39V231.58H571.33L572.642 233.714V286.092H645.285H645.429H718.073V233.714L719.386 231.58H716.606Z" fill="#241F21"/>
<path d="M738 269H12C5.37258 269 0 274.373 0 281V366C0 372.627 5.37256 378 12 378H738C744.627 378 750 372.627 750 366V281C750 274.373 744.627 269 738 269Z" fill="#241F21"/>
</g>
</svg>
