<svg width="11" height="14" viewBox="0 0 11 14" fill="none" xmlns="http://www.w3.org/2000/svg">
<path d="M3.33473 5.9006C3.33473 5.30224 3.56286 4.72839 3.96892 4.30529C4.37498 3.88218 4.92571 3.64449 5.49997 3.64449C6.07423 3.64449 6.62496 3.88218 7.03102 4.30529C7.43708 4.72839 7.6652 5.30224 7.6652 5.9006C7.6652 6.49895 7.43708 7.0728 7.03102 7.49591C6.62496 7.91901 6.07423 8.15671 5.49997 8.15671C4.92571 8.15671 4.37498 7.91901 3.96892 7.49591C3.56286 7.0728 3.33473 6.49895 3.33473 5.9006Z" fill="#848484"/>
<path fill-rule="evenodd" clip-rule="evenodd" d="M0.0195933 5.12102C0.130112 3.72541 0.74021 2.42413 1.72878 1.47547C2.71735 0.526806 4.01212 0.000135093 5.35606 0H5.64387C6.98782 0.000135093 8.28259 0.526806 9.27116 1.47547C10.2597 2.42413 10.8698 3.72541 10.9803 5.12102C11.1038 6.67912 10.6421 8.22633 9.69253 9.43679L6.49931 13.5061C6.37828 13.6605 6.22583 13.7849 6.05299 13.8703C5.88016 13.9557 5.69126 14 5.49997 14C5.30868 14 5.11978 13.9557 4.94695 13.8703C4.77411 13.7849 4.62166 13.6605 4.50063 13.5061L1.30807 9.43679C0.35824 8.22644 -0.103688 6.67921 0.0195933 5.12102ZM5.49997 2.6032C4.66067 2.6032 3.85575 2.95061 3.26228 3.56899C2.6688 4.18737 2.3354 5.02607 2.3354 5.9006C2.3354 6.77512 2.6688 7.61382 3.26228 8.23221C3.85575 8.85059 4.66067 9.19799 5.49997 9.19799C6.33927 9.19799 7.14419 8.85059 7.73766 8.23221C8.33113 7.61382 8.66454 6.77512 8.66454 5.9006C8.66454 5.02607 8.33113 4.18737 7.73766 3.56899C7.14419 2.95061 6.33927 2.6032 5.49997 2.6032Z" fill="#848484"/>
</svg>
