<svg width="1269" height="313" viewBox="0 0 1269 313" fill="none" xmlns="http://www.w3.org/2000/svg">
<g opacity="0.75">
<path fill-rule="evenodd" clip-rule="evenodd" d="M303.868 316.071C319.438 326.024 337.895 331 359.236 331C380.577 331 398.987 326.024 414.467 316.071C430.038 306.018 442.036 292.044 450.463 274.149C458.89 256.154 463.103 235.294 463.103 211.569C463.103 187.642 458.89 166.732 450.463 148.837C442.036 130.842 430.038 116.868 414.467 106.915C398.987 96.8621 380.577 91.8355 359.236 91.8355C337.895 91.8355 319.438 96.8621 303.868 106.915C288.388 116.868 276.435 130.842 268.009 148.837C259.582 166.732 255.369 187.642 255.369 211.569C255.369 235.294 259.582 256.154 268.009 274.149C276.435 292.044 288.388 306.018 303.868 316.071ZM383.829 272.189C377.325 278.221 369.22 281.237 359.511 281.237C349.71 281.237 341.467 278.221 334.78 272.189C328.186 266.057 323.194 257.713 319.805 247.157C316.508 236.601 314.859 224.587 314.859 211.116C314.859 197.645 316.508 185.631 319.805 175.076C323.194 164.52 328.186 156.176 334.78 150.043C341.467 143.911 349.71 140.845 359.511 140.845C369.22 140.845 377.325 143.911 383.829 150.043C390.332 156.176 395.232 164.52 398.529 175.076C401.918 185.631 403.613 197.645 403.613 211.116C403.613 224.587 401.918 236.601 398.529 247.157C395.232 257.713 390.332 266.057 383.829 272.189Z" fill="#F7F7EF"/>
<path d="M617.324 326.476L691.102 94.8515H629.139L585.449 260.578H583.251L539.423 94.8515H477.598L551.376 326.476H617.324Z" fill="#F7F7EF"/>
<path d="M721.054 94.8515V326.476H779.582V94.8515H721.054Z" fill="#F7F7EF"/>
<path d="M728.061 55.4934C734.289 61.8269 741.754 64.9936 750.455 64.9936C759.157 64.9936 766.576 61.8269 772.712 55.4934C778.941 49.0594 782.055 41.3687 782.055 32.4214C782.055 23.5746 778.941 15.9845 772.712 9.65104C766.576 3.21701 759.157 0 750.455 0C741.754 0 734.289 3.21701 728.061 9.65104C721.924 15.9845 718.855 23.5746 718.855 32.4214C718.855 41.3687 721.924 49.0594 728.061 55.4934Z" fill="#F7F7EF"/>
<path d="M825.367 288.174V326.476H1002.74V275.205H902.168V273.546L999.166 136.622V94.8515H828.939V146.123H928.684V147.781L825.367 288.174Z" fill="#F7F7EF"/>
<path d="M1047.49 94.8515V326.476H1106.02V94.8515H1047.49Z" fill="#F7F7EF"/>
<path d="M1054.5 55.4934C1060.73 61.8269 1068.19 64.9936 1076.89 64.9936C1085.6 64.9936 1093.01 61.8269 1099.15 55.4934C1105.38 49.0594 1108.49 41.3687 1108.49 32.4214C1108.49 23.5746 1105.38 15.9845 1099.15 9.65104C1093.01 3.21701 1085.6 0 1076.89 0C1068.19 0 1060.73 3.21701 1054.5 9.65104C1048.36 15.9845 1045.29 23.5746 1045.29 32.4214C1045.29 41.3687 1048.36 49.0594 1054.5 55.4934Z" fill="#F7F7EF"/>
<path d="M1265.15 94.9507V94.8515H1225.45V39.3581H1166.92V94.8515H1138.07V143.107H1166.92V263.744C1166.83 278.925 1169.71 291.491 1175.58 301.444C1181.44 311.396 1189.63 318.735 1200.17 323.46C1210.79 328.185 1223.16 330.246 1237.26 329.643C1244.87 329.341 1251.32 328.487 1256.64 327.079C1261.95 325.772 1266.07 324.616 1269 323.611L1259.8 275.808C1258.33 276.11 1256.22 276.562 1253.48 277.165C1250.73 277.668 1247.98 277.919 1245.23 277.919C1241.29 277.919 1237.81 277.266 1234.79 275.959C1231.86 274.652 1229.57 272.39 1227.92 269.173C1226.27 265.856 1225.45 261.231 1225.45 255.3V143.107H1243.61L1265.15 94.9507Z" fill="#F7F7EF"/>
<path d="M11.948 320.02V191.922C11.948 173.562 15.6413 156.823 23.3412 141.669C31.3066 126.515 42.7238 114.421 57.5925 105.387C72.4613 96.3526 90.2511 91.8355 110.961 91.8355C131.937 91.8355 149.726 96.3526 164.33 105.387C179.198 114.421 190.483 126.515 198.182 141.669C206.148 156.823 210.06 173.643 210.06 192.003V320.02H155.568V191.939C155.568 182.905 153.576 174.745 149.594 167.46C145.611 159.883 140.168 153.909 133.264 149.537C126.627 145.166 119.192 142.98 110.961 142.98C102.73 142.98 95.1629 145.166 88.2595 149.537C81.6217 153.909 76.3112 159.883 72.3285 167.46C68.3458 174.745 66.3545 182.905 66.3545 191.939V320.02H11.948Z" fill="#F7F7EF"/>
<path d="M0 320.02H11.948V188.313L0 320.02Z" fill="#F7F7EF"/>
<path d="M222.008 320.02H210.06V187.88L222.008 320.02Z" fill="#F7F7EF"/>
</g>
</svg>
