<svg width="17" height="17" viewBox="0 0 17 17" fill="none" xmlns="http://www.w3.org/2000/svg">
<path fill-rule="evenodd" clip-rule="evenodd" d="M7.49919 2.807e-08C6.30117 0.00012975 5.12061 0.287251 4.05634 0.837328C2.99207 1.3874 2.07506 2.18443 1.38208 3.16168C0.68909 4.13894 0.240295 5.26798 0.0732584 6.4543C-0.0937778 7.64062 0.0258064 8.84969 0.422 9.9803C0.818194 11.1109 1.47947 12.1302 2.35047 12.9527C3.22146 13.7753 4.27684 14.3772 5.42825 14.7082C6.57965 15.0391 7.79358 15.0894 8.96842 14.8548C10.1433 14.6203 11.2448 14.1077 12.1809 13.36L15.2434 16.4225C15.4005 16.5743 15.611 16.6583 15.8295 16.6564C16.048 16.6545 16.257 16.5669 16.4115 16.4123C16.566 16.2578 16.6537 16.0488 16.6556 15.8303C16.6575 15.6118 16.5735 15.4013 16.4217 15.2442L13.3592 12.1817C14.2409 11.0782 14.793 9.74824 14.9521 8.34481C15.1112 6.94138 14.8708 5.52155 14.2585 4.24875C13.6462 2.97594 12.687 1.9019 11.4912 1.15024C10.2954 0.39859 8.91161 -0.000122148 7.49919 2.807e-08ZM2.49919 7.5C2.49919 6.84339 2.62852 6.19321 2.87979 5.58658C3.13106 4.97995 3.49936 4.42876 3.96366 3.96447C4.42795 3.50017 4.97914 3.13188 5.58577 2.8806C6.1924 2.62933 6.84258 2.5 7.49919 2.5C8.1558 2.5 8.80598 2.62933 9.41261 2.8806C10.0192 3.13188 10.5704 3.50017 11.0347 3.96447C11.499 4.42876 11.8673 4.97995 12.1186 5.58658C12.3699 6.19321 12.4992 6.84339 12.4992 7.5C12.4992 8.82608 11.9724 10.0979 11.0347 11.0355C10.097 11.9732 8.82527 12.5 7.49919 12.5C6.17311 12.5 4.90134 11.9732 3.96366 11.0355C3.02597 10.0979 2.49919 8.82608 2.49919 7.5Z" fill="#BBB9B9"/>
</svg>
